# xmcd CD database file
#
# Track frame offsets:
#	150
#	33432
#	55125
#	69082
#	74127
#	99277
#	118080
#	138210
#	162512
#	183772
#	199532
#
# Disc length: 2908 seconds
#
# Revision: 0
# Processed by: cddbd v1.5.1PL0 Copyright (c) Steve Scherf et al.
# Submitted via: CDex 1.51
#
DISCID=940b5a0b
DTITLE=George Duke - A Brazilian Love Affair
DYEAR=1979
DGENRE=Jazz
TTITLE0=Brazilian Love Affair
TTITLE1=Summer Breezin'
TTITLE2=Cravo E Canela
TTITLE3=Alone-6AM
TTITLE4=Brazilian Sugar
TTITLE5=Sugar Loaf Mountain
TTITLE6=Love Reborn
TTITLE7=Up From the Sea It Arose and Ate Rio in One Swift Bite
TTITLE8=I Need You Now
TTITLE9=Ao Que Vai Nascer
TTITLE10=Caxanga
EXTD=YEAR: 1979
EXTT0=
EXTT1=
EXTT2=
EXTT3=
EXTT4=
EXTT5=
EXTT6=
EXTT7=
EXTT8=
EXTT9=
EXTT10=
PLAYORDER=
